<?xml version="1.0" encoding="utf-8"?>
<!-- Generator: Adobe Illustrator 15.0.0, SVG Export Plug-In . SVG Version: 6.00 Build 0)  -->
<!DOCTYPE svg PUBLIC "-//W3C//DTD SVG 1.1//EN" "http://www.w3.org/Graphics/SVG/1.1/DTD/svg11.dtd">
<svg version="1.1" id="Layer_1" xmlns="http://www.w3.org/2000/svg" xmlns:xlink="http://www.w3.org/1999/xlink" x="0px" y="0px"
	 width="75px" height="75px" viewBox="0 0 75 75" enable-background="new 0 0 75 75" xml:space="preserve">
<g>
	<path d="M50.503,65.402c0-0.044,20.188-24.795,20.188-24.795c5.154-6.374,1.266-14.002,1.227-14.08l-0.441-0.843l-0.58,0.754
		c-0.049,0.063-4.864,6.333-6.528,8.368L50.503,51.744V16.003h11.522l-4.155-4.602c2.333-0.001,6.942-0.001,8.092,0l0.878,0.973
		v-1.581c0-0.306,0-0.458-0.271-0.534l-4.967-5.502H49.259C47.691,1.917,44.798,0,41.484,0c-3.75,0-6.97,2.451-8.328,5.926
		L7.842,36.861c-2.759,3.371-5.48,15.681-5.595,16.203L2,54.193l1.07-0.436c0.469-0.191,11.537-4.714,14.3-8.09l15.098-18.449
		v10.046l-20.238,24.73v10.128l4.331-5.105l0.017-4.245h4.415v-4.719h4.414v-4.72h4.414v-4.719h2.649v16.787
		c0,5.292,4.045,9.598,9.017,9.598C46.457,75,50.503,70.694,50.503,65.402z M65.307,35.577c1.311-1.602,4.547-5.791,5.92-7.574
		c0.781,2.076,2.169,7.327-1.48,11.839L50.503,63.437v-9.772L65.307,35.577z M61.062,5.973l3.803,4.213c-0.05,0-0.101,0-0.152,0
		l-9.576,0.001l4.154,4.602h-8.788v-5.19c0-1.283-0.242-2.506-0.674-3.625H61.062z M16.43,44.898
		c-2.089,2.553-9.846,6.038-12.73,7.275c0.751-3.172,2.974-11.966,5.083-14.543l23.732-29c-0.03,0.319-0.046,0.641-0.046,0.968V25.3
		L16.43,44.898z M28.604,47.4v4.719h-4.414v4.72h-4.414v4.72h-4.41l-0.02,5.012l-1.901,2.241v-6.383l19.022-23.245V47.4H28.604z
		 M41.484,73.785c-4.301,0-7.801-3.761-7.801-8.383V9.598c0-4.623,3.5-8.383,7.801-8.383c4.303,0,7.802,3.761,7.802,8.383v55.804
		C49.286,70.024,45.787,73.785,41.484,73.785z"/>
	<path d="M10.021,38.82l0.419,1.141c3.735-1.371,5.823-5,6.531-7.94l-1.182-0.285C15.155,34.37,13.307,37.614,10.021,38.82z"/>
	<path d="M65.202,42.805c0.384-1.594,1.498-3.555,3.47-4.278l-0.419-1.142c-2.422,0.889-3.774,3.235-4.233,5.135L65.202,42.805z"/>
	<path d="M41.484,5.582c-2.708,0-4.911,2.337-4.911,5.212c0,2.873,2.203,5.209,4.911,5.209c2.709,0,4.913-2.336,4.913-5.209
		C46.397,7.919,44.193,5.582,41.484,5.582z M41.484,14.788c-2.037,0-3.696-1.792-3.696-3.994c0-2.204,1.659-3.998,3.696-3.998
		c2.039,0,3.697,1.793,3.697,3.998C45.182,12.996,43.523,14.788,41.484,14.788z"/>
	<rect x="40.877" y="24.949" width="1.216" height="35.919"/>
</g>
</svg>
