<?xml version="1.0" encoding="utf-8"?>
<!-- Generator: Adobe Illustrator 15.0.0, SVG Export Plug-In . SVG Version: 6.00 Build 0)  -->
<!DOCTYPE svg PUBLIC "-//W3C//DTD SVG 1.1//EN" "http://www.w3.org/Graphics/SVG/1.1/DTD/svg11.dtd">
<svg version="1.1" id="Layer_1" xmlns="http://www.w3.org/2000/svg" xmlns:xlink="http://www.w3.org/1999/xlink" x="0px" y="0px"
	 width="75px" height="75px" viewBox="0 0 75 75" enable-background="new 0 0 75 75" xml:space="preserve">
<g>
	<path d="M74.139,73.811h-0.963v-11.2h-4.033v10.153L36.957,34.143L5.463,72.737V62.61H1.431v11.2h-1.644V75h74.352V73.811z
		 M71.988,63.798v10.013H70.33V63.798H71.988z M36.966,36.011l31.501,37.8H37.555V38.102c0-0.012-0.594,0-0.594,0h-0.594
		c0.19,10.563-3.408,20.391-9.871,26.973c-5.333,5.429-12.349,8.421-20.353,8.707L36.966,36.011z M2.618,63.798h1.657v10.013H2.618
		V63.798z M27.344,65.905c4.359-4.438,7.449-10.299,9.023-16.852v24.757H13.88C19.018,72.396,23.583,69.735,27.344,65.905z"/>
	<rect x="37.369" y="50.558" transform="matrix(0.6403 0.7682 -0.7682 0.6403 55.1256 -15.4062)" width="13.285" height="1.188"/>
	<path d="M14.26,69.789c11.387-4.433,16.952-14.313,18.259-21.43l-1.168-0.214c-1.251,6.813-6.592,16.28-17.522,20.536L14.26,69.789
		z"/>
	<path d="M40.617,70.6h11.202V59.167H40.617V70.6z M41.805,69.41v-4.661l4.413,2.607l4.414-2.607v4.661H41.805z M50.632,60.356
		v3.012l-4.414,2.609l-4.413-2.609v-3.012H50.632z"/>
	<path d="M4.341,38.695h13.931c2.931,0,5.315-2.385,5.315-5.315c0-2.932-2.384-5.316-5.315-5.316c-0.773,0-1.423,0.123-2.042,0.392
		c-1.172-1.661-3.079-2.636-5.206-2.636c-2.529,0-4.732,1.457-5.755,3.754c-0.304-0.062-0.615-0.094-0.929-0.094
		c-2.542,0-4.609,2.067-4.609,4.607C-0.268,36.628,1.8,38.695,4.341,38.695z M4.341,30.668c0.376,0,0.745,0.061,1.095,0.179
		l0.558,0.189l0.194-0.556c0.738-2.11,2.637-3.473,4.837-3.473c1.922,0,3.555,0.917,4.481,2.517l0.298,0.514l0.515-0.298
		c0.592-0.343,1.177-0.489,1.953-0.489c2.275,0,4.127,1.852,4.127,4.128c0,2.275-1.852,4.126-4.127,4.126H4.341
		c-1.887,0-3.421-1.534-3.421-3.419S2.455,30.668,4.341,30.668z"/>
	<path d="M24.966,14.759h11.941c2.226,0,4.037-1.81,4.037-4.034S39.134,6.69,36.908,6.69c-0.253,0-0.503,0.023-0.748,0.069
		c-0.903-1.964-2.806-3.206-4.983-3.206c-1.829,0-3.469,0.827-4.491,2.239c-0.523-0.217-1.073-0.317-1.72-0.317
		c-2.56,0-4.642,2.082-4.642,4.642S22.407,14.759,24.966,14.759z M24.966,6.664c0.647,0,1.136,0.123,1.633,0.409l0.515,0.296
		l0.297-0.514c0.776-1.343,2.149-2.114,3.766-2.114c1.849,0,3.446,1.146,4.067,2.92l0.195,0.556l0.557-0.19
		c0.29-0.099,0.597-0.149,0.911-0.149c1.57,0,2.849,1.277,2.849,2.846s-1.279,2.846-2.849,2.846H24.966
		c-1.904,0-3.454-1.549-3.454-3.454S23.062,6.664,24.966,6.664z"/>
	<path d="M49.916,34.482h18.09c3.709,0,6.727-3.017,6.727-6.725c0-3.709-3.018-6.727-6.727-6.727c-1.03,0-1.888,0.173-2.709,0.555
		c-1.481-2.182-3.944-3.468-6.7-3.468c-3.26,0-6.096,1.906-7.368,4.902c-0.428-0.099-0.866-0.149-1.312-0.149
		c-3.203,0-5.808,2.604-5.808,5.806S46.713,34.482,49.916,34.482z M49.916,24.059c0.509,0,1.007,0.081,1.479,0.242l0.559,0.189
		l0.194-0.556c0.983-2.812,3.515-4.629,6.448-4.629c2.562,0,4.739,1.224,5.974,3.357l0.298,0.513l0.515-0.297
		c0.801-0.463,1.585-0.661,2.623-0.661c3.054,0,5.539,2.485,5.539,5.539c0,3.053-2.485,5.537-5.539,5.537h-18.09
		c-2.547,0-4.62-2.071-4.62-4.617C45.296,26.13,47.369,24.059,49.916,24.059z"/>
</g>
</svg>
