<?xml version="1.0" encoding="utf-8"?>
<!-- Generator: Adobe Illustrator 15.0.0, SVG Export Plug-In . SVG Version: 6.00 Build 0)  -->
<!DOCTYPE svg PUBLIC "-//W3C//DTD SVG 1.1//EN" "http://www.w3.org/Graphics/SVG/1.1/DTD/svg11.dtd">
<svg version="1.1" id="Layer_1" xmlns="http://www.w3.org/2000/svg" xmlns:xlink="http://www.w3.org/1999/xlink" x="0px" y="0px"
	 width="75px" height="75px" viewBox="0 0 75 75" enable-background="new 0 0 75 75" xml:space="preserve">
<g>
	<path d="M71.231,45.936h2.748l0.049-12.362c0-4.883-3.403-10.902-7.656-13.455l-20.597-8.935l-3.603-8.908l-0.135-0.203
		C40.706,0.736,38.93,0,37.037,0c-1.892,0-3.666,0.736-4.997,2.073l-3.737,9.111L7.636,20.156
		c-4.182,2.515-7.584,8.534-7.584,13.415L0,45.934h2.847C3.144,64.961,6.844,75,13.6,75h46.788C67.2,75,70.933,64.961,71.231,45.936
		z M1.231,44.709l0.045-11.136c0-4.501,3.136-10.048,6.92-12.33l21.054-9.135l3.745-9.255c1.088-1.05,2.519-1.627,4.041-1.627
		c1.523,0,2.956,0.577,4.046,1.627l3.744,9.255l20.983,9.098c3.855,2.318,6.992,7.866,6.992,12.364l-0.044,11.138h-1.513
		c0.004-0.43,0.008-0.859,0.008-1.301v-6.805c0-5.967-4.854-10.821-10.821-10.821H13.646c-5.967,0-10.821,4.854-10.821,10.821v6.805
		c0,0.439,0.004,0.871,0.007,1.301H1.231z M26.065,40.119v4.59H4.057c-0.003-0.43-0.007-0.861-0.007-1.301v-6.805
		c0-5.291,4.305-9.595,9.595-9.595h46.787c5.291,0,9.596,4.304,9.596,9.595v6.805c0,0.439-0.004,0.871-0.007,1.301H47.92v-4.59
		H26.065z M43.38,64.969v4.906H30.699v-4.906H43.38z M33.808,63.742l-2.956-13.215h12.376l-2.954,13.215H33.808z M27.291,49.299
		v-7.953h19.404v7.953H27.291z M4.072,45.934h21.993v4.594h3.529l2.956,13.215h-3.077v7.361h15.131v-7.361H41.53l2.954-13.215h3.436
		v-4.594l22.087,0.002c-0.287,17.977-3.677,27.84-9.619,27.84H13.6C7.712,73.775,4.357,63.912,4.072,45.934z"/>
	<path d="M29.474,37.252h15.131v-7.359H29.474V37.252z M30.699,31.119H43.38v4.906H30.699V31.119z"/>
</g>
</svg>
