<?xml version="1.0" encoding="utf-8"?>
<!-- Generator: Adobe Illustrator 15.0.0, SVG Export Plug-In . SVG Version: 6.00 Build 0)  -->
<!DOCTYPE svg PUBLIC "-//W3C//DTD SVG 1.1//EN" "http://www.w3.org/Graphics/SVG/1.1/DTD/svg11.dtd">
<svg version="1.1" id="Layer_1" xmlns="http://www.w3.org/2000/svg" xmlns:xlink="http://www.w3.org/1999/xlink" x="0px" y="0px"
	 width="145.668px" height="30px" viewBox="0 0 145.668 30" enable-background="new 0 0 145.668 30" xml:space="preserve">
<g>
	<rect y="7.879" fill="#F9F9F9" width="42.353" height="14.117"/>
	<path fill="#09599E" d="M1.765-0.062h38.824c0.97,0,1.765,0.794,1.765,1.765v6.177H0V1.702C0,0.731,0.794-0.062,1.765-0.062z"/>
	<path fill="#E59703" d="M0,21.996h42.353v6.177c0,0.971-0.794,1.765-1.765,1.765H1.765C0.794,29.938,0,29.144,0,28.173V21.996z"/>
	<path opacity="0.05" fill="#FFFFFF" enable-background="new    " d="M1.765,29.894C0.794,29.894,0,29.1,0,28.129V1.702
		c0-0.971,0.794-1.765,1.765-1.765h38.824c0.97,0,1.765,0.794,1.765,1.765"/>
	<g>
		<polygon fill="#00589F" points="16.368,18.644 17.647,11.188 19.676,11.188 18.397,18.644 		"/>
		<path fill="#00589F" d="M25.765,11.408c-0.397-0.132-1.015-0.309-1.809-0.309c-2.03,0-3.441,1.015-3.441,2.471
			c0,1.059,1.015,1.676,1.765,2.029c0.794,0.353,1.059,0.618,1.059,0.926c0,0.485-0.618,0.75-1.235,0.75
			c-0.794,0-1.235-0.132-1.897-0.396l-0.265-0.177l-0.265,1.677c0.485,0.221,1.368,0.396,2.25,0.396c2.118,0,3.53-1.015,3.53-2.559
			c0-0.838-0.53-1.5-1.721-2.029c-0.706-0.353-1.147-0.574-1.147-0.926c0-0.309,0.353-0.662,1.147-0.662
			c0.662,0,1.147,0.132,1.5,0.265l0.176,0.088L25.765,11.408"/>
		<path fill="#00589F" d="M30.971,11.231h-1.588c-0.485,0-0.838,0.132-1.059,0.618l-3,6.838h2.118c0,0,0.353-0.927,0.441-1.103
			c0.221,0,2.294,0,2.603,0c0.044,0.265,0.265,1.103,0.265,1.103h1.897L30.971,11.231 M28.456,15.996
			c0.176-0.441,0.794-2.073,0.794-2.073s0.176-0.441,0.265-0.706l0.132,0.662c0,0,0.397,1.765,0.485,2.161h-1.676V15.996z"/>
		<path fill="#00589F" d="M14.647,11.231l-1.985,5.073l-0.22-1.014c-0.353-1.191-1.544-2.471-2.824-3.132l1.853,6.485h2.162
			l3.221-7.456h-2.206"/>
		<path fill="#F9A51A" d="M10.809,11.188H7.544L7.5,11.364c2.559,0.618,4.235,2.118,4.941,3.882l-0.706-3.397
			C11.647,11.364,11.25,11.231,10.809,11.188"/>
	</g>
</g>
<path fill="#4361C3" d="M53.588-0.084h38.824c0.971,0,1.765,0.794,1.765,1.765v26.47c0,0.971-0.794,1.766-1.765,1.766H53.588
	c-0.971,0-1.765-0.795-1.765-1.766V1.68C51.823,0.709,52.617-0.084,53.588-0.084z"/>
<path fill="#FFAF38" d="M78.073,8.739c3.529,0,6.397,2.868,6.397,6.397c0,3.53-2.868,6.397-6.397,6.397s-6.397-2.867-6.397-6.397
	C71.676,11.607,74.544,8.739,78.073,8.739z"/>
<rect x="72.559" y="11.827" fill="#FFAF38" width="4.412" height="0.882"/>
<path fill="#EB3636" d="M67.926,21.533c-3.529,0-6.397-2.867-6.397-6.397c0-3.529,2.868-6.397,6.397-6.397s6.397,2.868,6.397,6.397
	C74.323,18.666,71.456,21.533,67.926,21.533z"/>
<path fill="#FFAF38" d="M72.559,18.004v-0.883h5.735v0.883H72.559z M72.559,11.827h5.735v0.882h-5.735V11.827z M77.853,14.474
	h-5.735v-0.882h5.735V14.474z M77.853,16.239h-5.735v-0.882h5.735V16.239z"/>
<path opacity="0.05" fill="#FFFFFF" enable-background="new    " d="M53.588,29.916h0.794L94.176,2.474V1.68
	c0-0.971-0.794-1.765-1.765-1.765H53.588c-0.971,0-1.765,0.794-1.765,1.765v26.47C51.823,29.121,52.617,29.916,53.588,29.916z"/>
<g>
	<path fill="#F7F6F4" d="M105.035-0.085h38.824c0.971,0,1.765,0.794,1.765,1.765V28.15c0,0.971-0.794,1.765-1.765,1.765h-38.824
		c-0.971,0-1.764-0.794-1.764-1.765V1.68C103.271,0.709,104.064-0.085,105.035-0.085z"/>
	<path fill="#053385" d="M126.301,14.121l-4.059,5.955c-0.045,0.089-0.178,0.133-0.31,0.133h-1.235
		c-0.176,0-0.265-0.176-0.176-0.353l1.279-1.81l-1.324-4.014c-0.044-0.132,0.045-0.265,0.221-0.265h1.191
		c0.176,0,0.309,0.088,0.354,0.265l0.705,2.426l1.677-2.515c0.044-0.088,0.177-0.176,0.309-0.176h1.235
		C126.301,13.768,126.389,13.989,126.301,14.121z M118.844,18.533h-1.102c-0.133,0-0.221-0.133-0.221-0.266l0.043-0.353
		c0,0-0.617,0.706-1.676,0.706c-0.617,0-1.146-0.177-1.544-0.617c-0.397-0.486-0.573-1.191-0.441-1.897
		c0.221-1.456,1.368-2.471,2.735-2.471c0.574,0,1.191,0.132,1.456,0.529l0.088,0.132l0.044-0.353c0-0.088,0.088-0.176,0.221-0.176
		h1.235c0.132,0,0.221,0.132,0.221,0.265l-0.661,4.235C119.153,18.4,119.021,18.533,118.844,18.533z M117.742,15.312
		c-0.178-0.221-0.486-0.354-0.795-0.354c-0.705,0-1.234,0.485-1.367,1.191c-0.045,0.353,0,0.662,0.176,0.883
		c0.177,0.221,0.486,0.352,0.839,0.352c0.706,0,1.235-0.484,1.367-1.189C118.006,15.841,117.918,15.533,117.742,15.312z
		 M111.344,16.15h-0.793c-0.177,0-0.309,0.133-0.354,0.309l-0.265,1.765c-0.044,0.177-0.177,0.31-0.353,0.31h-1.191
		c-0.133,0-0.221-0.133-0.221-0.266l1.015-6.617c0.044-0.176,0.177-0.309,0.353-0.309h2.56c0.838,0,1.499,0.221,1.853,0.662
		c0.309,0.397,0.441,0.971,0.309,1.676C113.947,15.356,112.977,16.15,111.344,16.15z M112.227,13.106
		c-0.221-0.265-0.662-0.265-1.103-0.265h-0.177c-0.088,0-0.176,0.088-0.221,0.177l-0.265,1.721h0.397c0.662,0,1.367,0,1.5-0.927
		C112.403,13.503,112.359,13.239,112.227,13.106z"/>
	<path fill="#199DDB" d="M139.756,18.268c-0.044,0.177-0.176,0.309-0.353,0.309h-1.059c-0.132,0-0.221-0.132-0.221-0.264l1.06-6.706
		c0-0.088,0.088-0.177,0.22-0.177h1.19c0.133,0,0.221,0.132,0.221,0.265L139.756,18.268z M136.933,18.533h-1.103
		c-0.133,0-0.221-0.133-0.221-0.266l0.044-0.353c0,0-0.618,0.706-1.677,0.706c-0.617,0-1.146-0.177-1.544-0.617
		c-0.397-0.486-0.573-1.191-0.441-1.897c0.221-1.456,1.368-2.471,2.735-2.471c0.574,0,1.191,0.132,1.456,0.529l0.089,0.132
		l0.044-0.353c0-0.088,0.088-0.176,0.22-0.176h1.236c0.132,0,0.221,0.132,0.221,0.265l-0.662,4.235
		C137.285,18.4,137.109,18.533,136.933,18.533z M135.83,15.312c-0.177-0.221-0.485-0.354-0.795-0.354
		c-0.705,0-1.234,0.485-1.367,1.191c-0.044,0.353,0,0.662,0.176,0.883c0.178,0.221,0.486,0.352,0.839,0.352
		c0.706,0,1.235-0.484,1.368-1.189C136.095,15.841,136.051,15.533,135.83,15.312z M129.433,16.15h-0.794
		c-0.177,0-0.309,0.133-0.354,0.309l-0.309,1.896c0,0.133-0.132,0.221-0.264,0.221h-1.324c-0.133,0-0.221-0.132-0.221-0.264
		l1.015-6.618c0.044-0.176,0.177-0.309,0.353-0.309h2.559c0.839,0,1.501,0.221,1.854,0.662c0.309,0.397,0.441,0.971,0.309,1.676
		C132.08,15.356,131.109,16.15,129.433,16.15z M130.314,13.106c-0.221-0.265-0.661-0.265-1.103-0.265h-0.177
		c-0.088,0-0.176,0.088-0.22,0.177l-0.265,1.721h0.396c0.662,0,1.367,0,1.5-0.927C130.492,13.503,130.447,13.239,130.314,13.106z"/>
	<path opacity="0.12" fill="#FFFFFF" enable-background="new    " d="M105.697,29.915c-1.323,0-2.426-1.103-2.426-2.47V2.386
		c0-1.368,1.059-2.471,2.426-2.471h37.544c1.323,0,2.427,1.103,2.427,2.471"/>
</g>
</svg>
