<?xml version="1.0" encoding="utf-8"?>
<!-- Generator: Adobe Illustrator 15.0.0, SVG Export Plug-In . SVG Version: 6.00 Build 0)  -->
<!DOCTYPE svg PUBLIC "-//W3C//DTD SVG 1.1//EN" "http://www.w3.org/Graphics/SVG/1.1/DTD/svg11.dtd">
<svg version="1.1" id="Layer_1" xmlns="http://www.w3.org/2000/svg" xmlns:xlink="http://www.w3.org/1999/xlink" x="0px" y="0px"
	 width="25px" height="25px" viewBox="0 0 25 25" enable-background="new 0 0 25 25" xml:space="preserve">
<g id="_x33_1">
	<path fill-rule="evenodd" clip-rule="evenodd" fill="#222222" d="M22.266,1.172c-1.51,0-2.734,1.225-2.734,2.734v4.297h-7.813
		V3.907c0-1.079,0.875-1.953,1.954-1.953c1.079,0,1.953,0.875,1.953,1.953v1.562c0,0.216,0.175,0.391,0.391,0.391
		c0.215,0,0.391-0.175,0.391-0.391V3.907c0-1.51-1.225-2.734-2.734-2.734c-1.51,0-2.735,1.225-2.735,2.734v7.812
		c0,1.509,0,2.343,0,2.343c0,0.217,0.176,0.391,0.391,0.391c0.216,0,0.391-0.174,0.391-0.391c0,0,0-0.518,0-1.171h7.813
		c0,1.07,0,1.953,0,1.953c0,0.217,0.175,0.391,0.391,0.391c0.215,0,0.391-0.174,0.391-0.391c0,0,0-2.045,0-3.125V3.907
		c0-1.079,0.875-1.953,1.953-1.953c1.079,0,1.953,0.875,1.953,1.953v1.562c0,0.216,0.175,0.391,0.391,0.391
		C24.824,5.86,25,5.685,25,5.469V3.907C25,2.397,23.775,1.172,22.266,1.172z M19.531,12.11h-7.813V8.985h7.813V12.11z
		 M22.186,18.248c0,0-0.408,0.115-0.686,0.156c-1.555,0.225-3.754,0.387-5.547-0.076c-2.166-0.562-7.482-3.129-10.009-3.094
		c-1.847,0-3.26,0.607-4.146,1.139C1.423,16.598,1.141,16.822,0.918,17c-0.253,0.205-0.424,0.352-0.494,0.41
		c-0.132,0.111-0.299,0.271-0.299,0.271C0.042,17.76,0,17.863,0,17.969c0.001,0.096,0.035,0.191,0.104,0.266
		c0.077,0.082,0.179,0.125,0.284,0.125c0.096,0,0.193-0.035,0.268-0.105c0,0,0.241-0.219,0.325-0.289
		c0.286-0.236,0.715-0.631,1.363-1.004c0.411-0.236,0.947-0.479,1.491-0.635c0.653-0.189,1.332-0.311,2.109-0.311
		c1.115,0,2.768,0.514,4.461,1.127c2.136,0.773,4.387,1.727,5.544,1.99c1.111,0.254,2.287,0.301,3.35,0.262
		c0.832-0.031,1.596-0.117,2.201-0.199c0.416-0.059,0.848-0.184,0.848-0.184c0.184-0.039,0.31-0.201,0.31-0.381
		c0-0.027-0.003-0.055-0.009-0.084C22.604,18.336,22.396,18.203,22.186,18.248z M22.186,22.67c0,0-0.408,0.115-0.686,0.154
		c-1.555,0.225-3.754,0.389-5.547-0.076c-2.166-0.562-7.482-3.127-10.009-3.092c-1.847,0-3.26,0.607-4.146,1.139
		c-0.375,0.225-0.658,0.447-0.88,0.627c-0.253,0.205-0.424,0.352-0.494,0.41c-0.132,0.109-0.299,0.271-0.299,0.271
		C0.042,22.182,0,22.285,0,22.391c0.001,0.094,0.035,0.189,0.104,0.266c0.077,0.082,0.179,0.125,0.284,0.125
		c0.096,0,0.193-0.035,0.268-0.105c0,0,0.241-0.219,0.325-0.289c0.286-0.236,0.715-0.633,1.363-1.004
		c0.411-0.236,0.947-0.48,1.491-0.637c0.653-0.188,1.332-0.309,2.109-0.309c1.115,0,2.768,0.514,4.461,1.127
		c2.136,0.773,4.387,1.727,5.544,1.99c0.897,0.203,1.835,0.275,2.723,0.273c0.213,0,0.422-0.004,0.627-0.012
		c0.832-0.031,1.596-0.117,2.201-0.201c0.416-0.057,0.848-0.182,0.848-0.182c0.184-0.039,0.31-0.201,0.31-0.381
		c0-0.027-0.003-0.055-0.009-0.084C22.604,22.758,22.396,22.625,22.186,22.67z"/>
</g>
</svg>
