<?xml version="1.0" encoding="utf-8"?>
<!-- Generator: Adobe Illustrator 15.0.0, SVG Export Plug-In . SVG Version: 6.00 Build 0)  -->
<!DOCTYPE svg PUBLIC "-//W3C//DTD SVG 1.1//EN" "http://www.w3.org/Graphics/SVG/1.1/DTD/svg11.dtd">
<svg version="1.1" id="Layer_1" xmlns="http://www.w3.org/2000/svg" xmlns:xlink="http://www.w3.org/1999/xlink" x="0px" y="0px"
	 width="25px" height="25px" viewBox="0 0 25 25" enable-background="new 0 0 25 25" xml:space="preserve">
<g id="_x30_9">
	<path fill-rule="evenodd" clip-rule="evenodd" fill="#222222" d="M1.236,8.63c0.079-0.639,0.148-1.286,0.219-1.75
		c0.036-0.239,0.078-0.603,0.248-0.905c0.12-0.213,0.29-0.352,0.579-0.517C2.57,5.294,2.771,5.19,3.09,5.063
		c0.261-0.104,0.602-0.224,1.14-0.375C6.08,4.165,8.906,3.78,12.5,3.78c3.591,0,6.422,0.385,8.271,0.909
		c0.536,0.151,0.876,0.271,1.136,0.375c0.318,0.128,0.519,0.233,0.811,0.396c0.292,0.164,0.46,0.304,0.58,0.518
		c0.17,0.302,0.211,0.666,0.248,0.907c0.07,0.464,0.14,1.108,0.218,1.746c0.11,0.896,0.221,1.823,0.289,2.396
		c0.334,0.196,0.624,0.411,0.864,0.646c-0.14-1.173-0.421-3.531-0.575-4.762c-0.048-0.38-0.17-1.193-0.525-1.581
		C22.589,3.989,18.308,2.999,12.5,2.999c-5.825,0-10.114,0.997-11.328,2.344c-0.34,0.379-0.465,1.184-0.513,1.56
		c-0.153,1.229-0.436,3.597-0.576,4.772c0.241-0.233,0.53-0.446,0.864-0.642C1.015,10.459,1.126,9.529,1.236,8.63z M3.516,20.967
		H1.172c-0.216,0-0.391,0.175-0.391,0.391s0.175,0.391,0.391,0.391h2.344c0.216,0,0.391-0.175,0.391-0.391
		S3.731,20.967,3.516,20.967z M24.219,14.152v-0.217c0-1.012-0.905-1.731-2.489-2.225l0.121-1.16c0.09-0.854-1.278-1.705-4.11-2.002
		c-0.527-0.056-1.01-0.082-1.445-0.083c-1.902,0-2.917,0.493-2.99,1.187l-0.122,1.163c-0.227-0.001-0.45-0.005-0.683-0.005
		s-0.455,0.003-0.683,0.005l-0.124-1.163c-0.072-0.694-1.088-1.187-2.988-1.186c-0.437,0-0.919,0.026-1.448,0.082
		c-2.832,0.297-4.2,1.149-4.11,2.002l0.122,1.16c-1.583,0.493-2.489,1.213-2.489,2.225v0.217C0.316,14.423,0,14.922,0,15.498v2.344
		c0,0.863,0.7,1.562,1.562,1.562h21.875c0.863,0,1.562-0.699,1.562-1.562v-2.344C25,14.922,24.685,14.423,24.219,14.152z
		 M14.049,10.052c0.013-0.119,0.018-0.281,0.107-0.372c0.119-0.12,0.354-0.203,0.604-0.273c0.594-0.167,1.656-0.212,2.9-0.081
		c1.241,0.13,2.262,0.395,2.812,0.681c0.232,0.121,0.446,0.251,0.538,0.393c0.07,0.108,0.043,0.268,0.03,0.388l-0.074,0.715
		c-1.769-0.421-4.175-0.626-7-0.677L14.049,10.052z M3.987,10.4c0.09-0.142,0.303-0.271,0.534-0.392
		C5.066,9.722,6.096,9.457,7.34,9.326c1.241-0.13,2.294-0.084,2.893,0.081c0.252,0.07,0.489,0.152,0.608,0.272
		c0.092,0.092,0.098,0.253,0.11,0.373l0.082,0.773c-2.824,0.051-5.231,0.256-6.999,0.677l-0.075-0.715
		C3.946,10.668,3.918,10.509,3.987,10.4z M1.917,13.244c0.147-0.146,0.386-0.287,0.632-0.414c1.543-0.786,4.793-1.239,9.951-1.239
		c5.154,0,8.406,0.453,9.949,1.239c0.247,0.126,0.487,0.267,0.635,0.414c0.213,0.212,0.354,0.38,0.354,0.691H1.562
		C1.562,13.624,1.703,13.456,1.917,13.244z M24.219,17.842c0,0.432-0.35,0.781-0.781,0.781H1.562c-0.432,0-0.781-0.35-0.781-0.781
		v-2.344c0-0.432,0.35-0.781,0.781-0.781h21.875c0.432,0,0.781,0.35,0.781,0.781V17.842z M23.828,20.967h-2.344
		c-0.216,0-0.391,0.175-0.391,0.391s0.175,0.391,0.391,0.391h2.344c0.216,0,0.391-0.175,0.391-0.391S24.044,20.967,23.828,20.967z"
		/>
</g>
</svg>
