<?xml version="1.0" encoding="utf-8"?>
<!-- Generator: Adobe Illustrator 15.0.0, SVG Export Plug-In . SVG Version: 6.00 Build 0)  -->
<!DOCTYPE svg PUBLIC "-//W3C//DTD SVG 1.1//EN" "http://www.w3.org/Graphics/SVG/1.1/DTD/svg11.dtd">
<svg version="1.1" id="Layer_1" xmlns="http://www.w3.org/2000/svg" xmlns:xlink="http://www.w3.org/1999/xlink" x="0px" y="0px"
	 width="25px" height="25px" viewBox="0 0 25 25" enable-background="new 0 0 25 25" xml:space="preserve">
<g id="_x31_6">
	<path fill-rule="evenodd" clip-rule="evenodd" fill="#222222" d="M7.494,19.311c-0.203-0.074-0.427,0.03-0.5,0.233l-0.268,0.733
		c-0.073,0.203,0.031,0.427,0.234,0.501c0.203,0.073,0.427-0.031,0.5-0.233l0.267-0.734C7.801,19.607,7.697,19.384,7.494,19.311z
		 M12.5,23.438c-0.216,0-0.391,0.175-0.391,0.391v0.781c0,0.216,0.175,0.391,0.391,0.391c0.215,0,0.391-0.175,0.391-0.391v-0.781
		C12.891,23.612,12.715,23.438,12.5,23.438z M6.158,22.98c-0.203-0.074-0.427,0.03-0.5,0.233L5.39,23.948
		c-0.074,0.202,0.031,0.427,0.233,0.5c0.203,0.074,0.427-0.03,0.5-0.233l0.267-0.733C6.465,23.278,6.36,23.055,6.158,22.98z
		 M8.83,15.639c-0.203-0.073-0.427,0.031-0.501,0.233l-0.267,0.735c-0.074,0.202,0.031,0.426,0.233,0.5s0.427-0.03,0.5-0.233
		l0.268-0.733C9.137,15.938,9.032,15.713,8.83,15.639z M2.93,19.074c-0.187-0.107-0.425-0.043-0.533,0.143l-0.391,0.677
		c-0.108,0.188-0.044,0.426,0.143,0.534c0.187,0.107,0.425,0.044,0.533-0.144l0.391-0.677C3.181,19.422,3.117,19.182,2.93,19.074z
		 M0.977,22.457c-0.188-0.107-0.426-0.043-0.534,0.144l-0.391,0.676c-0.108,0.188-0.044,0.426,0.143,0.534
		c0.187,0.107,0.426,0.044,0.534-0.144l0.391-0.676C1.228,22.805,1.164,22.565,0.977,22.457z M4.883,15.691
		c-0.187-0.107-0.426-0.043-0.534,0.143l-0.391,0.677c-0.108,0.188-0.043,0.426,0.143,0.534c0.187,0.107,0.426,0.044,0.534-0.144
		l0.391-0.677C5.134,16.039,5.07,15.799,4.883,15.691z M12.5,19.531c-0.216,0-0.391,0.175-0.391,0.391v0.781
		c0,0.216,0.175,0.391,0.391,0.391c0.215,0,0.391-0.175,0.391-0.391v-0.781C12.891,19.706,12.715,19.531,12.5,19.531z M21.484,0
		h-7.031c-1.295,0-2.344,1.049-2.344,2.344v1.172h0.781V2.344c0-0.863,0.699-1.562,1.562-1.562h7.031
		c0.215,0,0.391-0.175,0.391-0.391S21.699,0,21.484,0z M22.604,19.217c-0.107-0.186-0.347-0.25-0.533-0.143
		c-0.188,0.107-0.252,0.348-0.144,0.533l0.391,0.677c0.108,0.188,0.347,0.251,0.534,0.144c0.187-0.108,0.25-0.347,0.143-0.534
		L22.604,19.217z M19.922,10.937h-0.427c-0.355-3.859-3.353-6.25-6.995-6.25c-3.644,0-6.639,2.391-6.995,6.25H5.078
		c-0.647,0-1.172,0.525-1.172,1.172c0,0.646,0.525,1.172,1.172,1.172h14.844c0.647,0,1.172-0.525,1.172-1.172
		C21.094,11.462,20.569,10.937,19.922,10.937z M19.922,12.5H5.078c-0.216,0-0.391-0.175-0.391-0.391
		c0-0.217,0.175-0.391,0.391-0.391c0,0,0.676,0,0.852,0h10.085c0.216,0,0.391-0.175,0.391-0.391s-0.175-0.391-0.391-0.391H6.3
		c0.337-3.402,2.984-5.468,6.2-5.468c3.318,0,6.035,2.192,6.231,5.786c0.008,0.136,0.053,0.464,0.338,0.464c0.176,0,0.853,0,0.853,0
		c0.215,0,0.391,0.174,0.391,0.391C20.312,12.325,20.137,12.5,19.922,12.5z M24.948,23.276l-0.392-0.676
		c-0.107-0.187-0.347-0.251-0.533-0.144c-0.188,0.108-0.252,0.348-0.144,0.534l0.391,0.676c0.108,0.188,0.347,0.251,0.534,0.144
		C24.991,23.702,25.055,23.464,24.948,23.276z M20.65,15.834c-0.107-0.186-0.347-0.25-0.533-0.143
		c-0.188,0.107-0.252,0.348-0.144,0.533l0.391,0.677c0.108,0.188,0.347,0.251,0.534,0.144c0.187-0.108,0.25-0.347,0.143-0.534
		L20.65,15.834z M12.5,15.625c-0.216,0-0.391,0.175-0.391,0.391v0.781c0,0.216,0.175,0.391,0.391,0.391
		c0.215,0,0.391-0.175,0.391-0.391v-0.781C12.891,15.8,12.715,15.625,12.5,15.625z M16.671,15.872
		c-0.074-0.202-0.298-0.307-0.501-0.233c-0.203,0.074-0.307,0.299-0.233,0.502l0.268,0.733c0.073,0.203,0.298,0.308,0.5,0.233
		c0.203-0.074,0.307-0.298,0.233-0.5L16.671,15.872z M18.007,19.544c-0.074-0.203-0.299-0.308-0.501-0.233
		c-0.202,0.073-0.308,0.297-0.233,0.5l0.268,0.734c0.073,0.202,0.297,0.307,0.5,0.233c0.203-0.074,0.307-0.298,0.234-0.501
		L18.007,19.544z M19.342,23.214c-0.073-0.203-0.297-0.308-0.5-0.233s-0.307,0.298-0.233,0.501l0.267,0.733
		c0.075,0.203,0.299,0.308,0.501,0.233c0.202-0.073,0.308-0.298,0.234-0.5L19.342,23.214z"/>
</g>
</svg>
