<?xml version="1.0" encoding="utf-8"?>
<!-- Generator: Adobe Illustrator 15.0.0, SVG Export Plug-In . SVG Version: 6.00 Build 0)  -->
<!DOCTYPE svg PUBLIC "-//W3C//DTD SVG 1.1//EN" "http://www.w3.org/Graphics/SVG/1.1/DTD/svg11.dtd">
<svg version="1.1" id="Layer_1" xmlns="http://www.w3.org/2000/svg" xmlns:xlink="http://www.w3.org/1999/xlink" x="0px" y="0px"
	 width="25px" height="25px" viewBox="0 0 25 25" enable-background="new 0 0 25 25" xml:space="preserve">
<g id="_x30_3">
	<path fill-rule="evenodd" clip-rule="evenodd" fill="#222222" d="M6.077,6.967C6.165,6.92,6.333,6.808,6.463,6.706
		c0.334-0.259,0.67-0.541,0.997-0.913c0.444-0.503,0.649-0.813,0.849-1.14c0.05-0.082,0.067-0.11,0.093-0.156
		c0.111-0.185,0.05-0.425-0.134-0.536C8.083,3.85,7.842,3.91,7.731,4.096C7.713,4.126,7.683,4.177,7.625,4.271
		C7.389,4.65,7.122,5.026,6.708,5.454c-0.483,0.5-1.099,0.874-1.099,0.874c-0.172,0.13-0.205,0.378-0.074,0.549
		C5.666,7.049,5.877,7.072,6.077,6.967z M11.007,6.113c0.065-0.065,0.384-0.454,0.59-0.761c0.879-1.312,1.336-2.538,1.569-3.85
		c0.054-0.309,0.086-0.617,0.099-0.922c0.005-0.125,0.007-0.162,0.003-0.189c0-0.216-0.174-0.391-0.39-0.391
		c-0.215,0-0.391,0.175-0.391,0.391c0,0.04,0,0.056-0.006,0.19c-0.018,0.31-0.056,0.636-0.124,0.982
		c-0.11,0.572-0.24,1.076-0.47,1.603c-0.21,0.481-0.346,0.813-0.762,1.466c-0.175,0.276-0.44,0.673-0.736,0.986
		c-0.136,0.167-0.106,0.412,0.061,0.549C10.612,6.299,10.855,6.265,11.007,6.113z M16.016,21.874h-12.5
		c-0.216,0-0.391,0.174-0.391,0.391c0,0.216,0.174,0.391,0.391,0.391h12.5c0.216,0,0.391-0.175,0.391-0.391
		C16.406,22.048,16.231,21.874,16.016,21.874z M18.673,13.317c0.08-1.069,0.338-1.838,0.57-2.458c0.099-0.267,0.193-0.437,0.267-0.7
		c0.014-0.057,0.021-0.115,0.021-0.174c-0.001-0.305-0.216-0.611-0.887-0.611c-1.765,0-5.215,0-5.215,0H6.104c0,0-3.452,0-5.217,0
		C0.212,9.374,0,9.683,0,9.989c0,0.057,0.008,0.114,0.021,0.169c0.072,0.263,0.169,0.433,0.269,0.7
		c0.233,0.62,0.491,1.389,0.57,2.458c0.038,0.585,0.043,1.063,0.248,2.01c0.529,2.377,2.885,4.959,7.563,4.984h2.192
		c4.678-0.025,7.031-2.607,7.561-4.984C18.631,14.381,18.635,13.902,18.673,13.317z M18.167,11.638
		c-0.147,0.555-0.229,0.946-0.294,1.896c-0.033,0.447-0.043,0.85-0.229,1.693c-0.066,0.307-0.222,0.765-0.497,1.247
		c-0.176,0.307-0.402,0.618-0.678,0.925c-0.386,0.429-0.888,0.831-1.478,1.161c-1.067,0.595-2.429,0.97-4.286,0.97H8.828
		c-1.856,0-3.219-0.375-4.286-0.97c-0.59-0.33-1.092-0.732-1.478-1.161c-0.275-0.307-0.502-0.618-0.677-0.925
		c-0.275-0.482-0.431-0.94-0.498-1.247c-0.185-0.844-0.195-1.246-0.228-1.693c-0.066-0.951-0.146-1.341-0.294-1.896
		c-0.048-0.179-0.143-0.495-0.218-0.706c-0.071-0.223-0.158-0.41-0.198-0.542c-0.047-0.152-0.091-0.235,0.179-0.235
		c1.584,0,5.397,0,5.397,0h6.479c0,0,3.813,0,5.398,0c0.269,0,0.224,0.083,0.178,0.235c-0.04,0.131-0.126,0.319-0.198,0.542
		C18.31,11.143,18.215,11.459,18.167,11.638z M24.41,11.619c-1.048-1.032-2.229-0.624-3.533-0.483
		c-0.118,0.012-0.424,0.021-0.445,0.022c0,0-0.056,0.133-0.13,0.359c-0.063,0.19-0.137,0.432-0.137,0.432
		c0.172,0.001,0.659-0.02,0.823-0.04c0.405-0.047,0.794-0.107,1.105-0.151c0.25-0.035,0.517-0.04,0.706-0.037
		c0.235,0.003,0.463,0.064,0.625,0.143c0.363,0.176,0.71,0.478,0.781,1.151c0.107,1.015-0.533,1.824-1.038,2.257
		c-0.301,0.256-1.16,0.819-2.012,1.229c-0.73,0.353-1.622,0.702-2.263,0.862c0,0-0.16,0.31-0.318,0.506
		c-0.237,0.292-0.335,0.411-0.335,0.411c0.091-0.011,0.163-0.021,0.4-0.06c0.597-0.101,1.538-0.417,2.504-0.85
		c0.443-0.2,0.934-0.458,1.409-0.74c0.232-0.138,0.871-0.529,1.208-0.841c0.289-0.264,0.525-0.543,0.672-0.772
		C24.852,14.37,25,13.814,25,13.22C25,12.498,24.72,11.924,24.41,11.619z M12.937,6.393c-0.13,0.167-0.11,0.404,0.053,0.546
		c0.162,0.141,0.412,0.115,0.553-0.048c0,0,0.201-0.206,0.351-0.438c0.226-0.348,0.442-0.704,0.627-1.164
		c0.072-0.178,0.131-0.335,0.18-0.477c0.053-0.157,0.07-0.211,0.127-0.409c0.06-0.208-0.061-0.423-0.269-0.483
		c-0.207-0.059-0.423,0.061-0.482,0.269s-0.071,0.244-0.102,0.336c-0.143,0.432-0.447,1.141-0.835,1.625
		C13.068,6.24,13.004,6.305,12.937,6.393z"/>
</g>
</svg>
