<?xml version="1.0" encoding="utf-8"?>
<!-- Generator: Adobe Illustrator 15.0.0, SVG Export Plug-In . SVG Version: 6.00 Build 0)  -->
<!DOCTYPE svg PUBLIC "-//W3C//DTD SVG 1.1//EN" "http://www.w3.org/Graphics/SVG/1.1/DTD/svg11.dtd">
<svg version="1.1" id="Layer_1" xmlns="http://www.w3.org/2000/svg" xmlns:xlink="http://www.w3.org/1999/xlink" x="0px" y="0px"
	 width="25px" height="25px" viewBox="0 0 25 25" enable-background="new 0 0 25 25" xml:space="preserve">
<g id="_x32_3">
	<path fill-rule="evenodd" clip-rule="evenodd" fill="#222222" d="M21.484,8.15H3.516c-0.216,0-0.391,0.175-0.391,0.391
		S3.3,8.932,3.516,8.932h17.968c0.215,0,0.391-0.175,0.391-0.391S21.699,8.15,21.484,8.15z M13.412,17.603
		c-0.423-0.339-0.926-0.544-0.912-0.936v-0.313c0-0.216-0.175-0.391-0.391-0.391c-0.216,0-0.391,0.175-0.391,0.391v0.313
		c0,0.638,0.416,0.982,0.782,1.245c0.367,0.265,0.781,0.489,0.781,0.863c0,0.232-0.386,0.448-0.779,0.64
		c-0.134,0.066-0.323,0.137-0.461,0.197c-0.165,0.072-0.324,0.148-0.468,0.234c-0.37,0.222-0.636,0.565-0.636,1.038
		c0,0.466,0.214,0.835,0.419,1.18c0.186,0.312,0.328,0.656,0.328,0.656c0.061,0.206,0.278,0.324,0.485,0.263
		c0.207-0.061,0.325-0.277,0.264-0.485c0,0-0.054-0.161-0.199-0.451c-0.138-0.274-0.313-0.56-0.414-0.769
		c-0.07-0.147-0.102-0.262-0.102-0.394c0-0.388,0.595-0.505,1.175-0.79c0.579-0.282,1.157-0.643,1.168-1.319
		C14.062,18.226,13.748,17.872,13.412,17.603z M6.382,17.603c-0.424-0.339-0.927-0.544-0.913-0.936v-0.313
		c0-0.216-0.175-0.391-0.391-0.391s-0.391,0.175-0.391,0.391v0.313c0,0.638,0.417,0.982,0.782,1.245
		c0.367,0.265,0.781,0.489,0.781,0.863c0,0.232-0.385,0.448-0.779,0.64c-0.134,0.066-0.323,0.137-0.461,0.197
		c-0.166,0.072-0.324,0.148-0.468,0.234c-0.37,0.222-0.636,0.565-0.636,1.038c0,0.466,0.214,0.835,0.418,1.18
		c0.186,0.312,0.328,0.656,0.328,0.656c0.061,0.206,0.279,0.324,0.485,0.263c0.207-0.061,0.325-0.277,0.264-0.485
		c0,0-0.054-0.161-0.2-0.451c-0.138-0.274-0.313-0.56-0.414-0.769c-0.07-0.147-0.102-0.262-0.102-0.394
		c0-0.388,0.595-0.505,1.175-0.79c0.578-0.282,1.157-0.643,1.168-1.319C7.031,18.226,6.717,17.872,6.382,17.603z M14.453,10.495
		h-3.906c-0.216,0-0.391,0.174-0.391,0.391c0,0.216,0.175,0.39,0.391,0.39h3.906c0.215,0,0.391-0.174,0.391-0.39
		C14.844,10.669,14.668,10.495,14.453,10.495z M21.484,6.588H3.516c-0.216,0-0.391,0.175-0.391,0.391S3.3,7.369,3.516,7.369h17.968
		c0.215,0,0.391-0.175,0.391-0.391S21.699,6.588,21.484,6.588z M21.484,5.025H3.516C3.3,5.025,3.125,5.2,3.125,5.416
		S3.3,5.807,3.516,5.807h17.968c0.215,0,0.391-0.175,0.391-0.391S21.699,5.025,21.484,5.025z M21.094,1.9H3.907
		C1.749,1.9,0,3.649,0,5.807v3.907c0,2.157,1.749,3.905,3.907,3.905h17.187c2.157,0,3.906-1.748,3.906-3.905V5.807
		C25,3.649,23.251,1.9,21.094,1.9z M24.219,9.714c0,1.726-1.4,3.124-3.125,3.124H3.907c-1.726,0-3.125-1.398-3.125-3.124V5.807
		c0-1.726,1.399-3.125,3.125-3.125h17.187c1.725,0,3.125,1.399,3.125,3.125V9.714z M20.443,17.603
		c-0.424-0.339-0.926-0.544-0.912-0.936v-0.313c0-0.216-0.176-0.391-0.391-0.391c-0.216,0-0.391,0.175-0.391,0.391v0.313
		c0,0.638,0.416,0.982,0.781,1.245c0.367,0.265,0.781,0.489,0.781,0.863c0,0.232-0.386,0.448-0.779,0.64
		c-0.134,0.066-0.322,0.137-0.461,0.197c-0.166,0.072-0.324,0.148-0.468,0.234c-0.37,0.222-0.636,0.565-0.636,1.038
		c0,0.466,0.215,0.835,0.419,1.18c0.185,0.312,0.327,0.656,0.327,0.656c0.062,0.206,0.279,0.324,0.485,0.263
		c0.207-0.061,0.325-0.277,0.265-0.485c0,0-0.055-0.161-0.199-0.451c-0.139-0.274-0.314-0.56-0.414-0.769
		c-0.07-0.147-0.102-0.262-0.102-0.394c0-0.388,0.595-0.505,1.176-0.79c0.576-0.282,1.156-0.643,1.168-1.319
		C21.094,18.226,20.779,17.872,20.443,17.603z"/>
</g>
</svg>
