<?xml version="1.0" encoding="utf-8"?>
<!-- Generator: Adobe Illustrator 15.0.0, SVG Export Plug-In . SVG Version: 6.00 Build 0)  -->
<!DOCTYPE svg PUBLIC "-//W3C//DTD SVG 1.1//EN" "http://www.w3.org/Graphics/SVG/1.1/DTD/svg11.dtd">
<svg version="1.1" id="Layer_1" xmlns="http://www.w3.org/2000/svg" xmlns:xlink="http://www.w3.org/1999/xlink" x="0px" y="0px"
	 width="25px" height="25px" viewBox="0 0 25 25" enable-background="new 0 0 25 25" xml:space="preserve">
<g id="_x31_1">
	<path fill-rule="evenodd" clip-rule="evenodd" fill="#222222" d="M12.811,14.062c-0.647,0-1.172,0.525-1.172,1.172
		c0,0.647,0.524,1.172,1.172,1.172c0.647,0,1.171-0.524,1.171-1.172C13.982,14.588,13.458,14.062,12.811,14.062z M12.811,15.625
		c-0.216,0-0.391-0.175-0.391-0.391c0-0.217,0.174-0.391,0.391-0.391s0.39,0.174,0.39,0.391
		C13.201,15.45,13.027,15.625,12.811,15.625z M18.279,0H7.342C6.047,0,4.999,1.049,4.999,2.344v20.312
		C4.999,23.95,6.047,25,7.342,25h10.937c1.294,0,2.344-1.05,2.344-2.344V2.344C20.623,1.049,19.573,0,18.279,0z M7.342,0.781h10.937
		c0.577,0,1.075,0.316,1.346,0.781H5.997C6.267,1.098,6.766,0.781,7.342,0.781z M18.279,24.219H7.342
		c-0.577,0-1.075-0.316-1.346-0.781h13.628C19.354,23.902,18.856,24.219,18.279,24.219z M19.842,22.656H5.78V2.344h14.062V22.656z
		 M15.157,9.827c-0.711-0.289-1.507-0.452-2.346-0.452c-0.84,0-1.636,0.163-2.347,0.453c-0.853,0.387-1.244,0.699-1.343,0.775
		c-0.17,0.133-0.2,0.378-0.067,0.549c0.133,0.169,0.378,0.2,0.548,0.067c0.158-0.116,0.427-0.312,0.879-0.535
		c0.27-0.131,0.542-0.242,0.843-0.327c0.467-0.131,0.966-0.201,1.487-0.201s1.02,0.069,1.488,0.201
		c0.3,0.085,0.571,0.196,0.841,0.327c0.457,0.227,0.727,0.419,0.88,0.535c0.171,0.133,0.416,0.102,0.549-0.067
		c0.133-0.171,0.103-0.416-0.067-0.549C16.399,10.524,15.928,10.167,15.157,9.827z M14.936,12.227
		c-0.07-0.037-0.361-0.172-0.56-0.241c-0.489-0.172-1.017-0.267-1.565-0.267c-0.549,0-1.076,0.095-1.565,0.267
		c-0.215,0.081-0.475,0.197-0.559,0.241c-0.139,0.067-0.219,0.206-0.219,0.351c0,0.058,0.012,0.116,0.04,0.171
		c0.095,0.194,0.329,0.274,0.522,0.18c0.052-0.026,0.152-0.07,0.217-0.102c0.479-0.211,1.009-0.327,1.565-0.327
		c0.556,0,1.085,0.116,1.565,0.327c0.06,0.024,0.161,0.076,0.217,0.102c0.193,0.094,0.427,0.014,0.521-0.18
		c0.027-0.056,0.041-0.114,0.04-0.174C15.154,12.432,15.073,12.294,14.936,12.227z M7.984,9.396
		c0.052-0.042,0.193-0.157,0.372-0.283c0.162-0.115,0.356-0.236,0.546-0.344c1.065-0.595,2.424-0.956,3.909-0.956
		c1.485,0,2.843,0.361,3.909,0.956c0.193,0.11,0.388,0.231,0.548,0.344c0.185,0.131,0.326,0.248,0.37,0.283
		c0.165,0.139,0.412,0.118,0.55-0.048c0.061-0.072,0.092-0.16,0.092-0.249c0.001-0.112-0.047-0.224-0.139-0.302
		c-0.075-0.065-0.621-0.521-1.421-0.91c-1.118-0.541-2.463-0.856-3.909-0.856c-1.447,0-2.792,0.315-3.909,0.856
		c-0.813,0.399-1.34,0.84-1.42,0.91c-0.093,0.078-0.141,0.189-0.14,0.302c0,0.088,0.03,0.176,0.091,0.249
		C7.572,9.513,7.819,9.535,7.984,9.396z"/>
</g>
</svg>
