<?xml version="1.0" encoding="utf-8"?>
<!-- Generator: Adobe Illustrator 15.0.0, SVG Export Plug-In . SVG Version: 6.00 Build 0)  -->
<!DOCTYPE svg PUBLIC "-//W3C//DTD SVG 1.1//EN" "http://www.w3.org/Graphics/SVG/1.1/DTD/svg11.dtd">
<svg version="1.1" id="Layer_1" xmlns="http://www.w3.org/2000/svg" xmlns:xlink="http://www.w3.org/1999/xlink" x="0px" y="0px"
	 width="25px" height="25px" viewBox="0 0 25 25" enable-background="new 0 0 25 25" xml:space="preserve">
<g id="_x31_7">
	<path fill-rule="evenodd" clip-rule="evenodd" fill="#222222" d="M5.469,5.595c0.581,0,1.16,0.235,1.577,0.616
		C7.132,6.29,7.207,6.376,7.207,6.376c0.196,0.218,0.361,0.502,0.465,0.781l0.816-0.002C8.371,6.719,8.155,6.299,7.875,5.96
		c0.183-0.66,0.782-1.146,1.5-1.146c0.781,0,1.417,0.572,1.534,1.319c0.013,0.083,0.068,0.396,0.062,0.495
		c-0.147,0.161-0.278,0.342-0.39,0.53l0.964-0.003c0.429-0.475,1.056-0.779,1.736-0.779c1.031,0,1.883,0.657,2.207,1.562
		c0,0,0.098-0.002,0.137,0.001h0.789c0-0.863,0.691-1.562,1.555-1.562c0.807,0,1.461,0.616,1.543,1.4
		c-0.277,0.255-0.495,0.58-0.625,0.942l0.857,0.002c0.269-0.471,0.812-0.782,1.35-0.782c0.573,0,1.074,0.321,1.346,0.781
		l0.857-0.001c-0.326-0.901-1.189-1.562-2.203-1.562c-0.309,0-0.602,0.065-0.871,0.174c-0.269-0.998-1.171-1.736-2.254-1.736
		c-0.939,0-1.742,0.556-2.117,1.353c-0.563-0.816-1.504-1.353-2.57-1.353c-0.585,0-1.128,0.167-1.596,0.446
		c-0.164-1.134-1.13-2.009-2.31-2.009c-0.939,0-1.744,0.556-2.117,1.354C6.75,5.029,6.137,4.813,5.469,4.813
		c-1.149,0-2.154,0.635-2.697,1.561l0.961,0.001C4.161,5.908,4.768,5.595,5.469,5.595z M24.609,11.064c-0.216,0-0.17,0-0.311,0
		c-0.346,0-0.868,0.029-1.643,0.08c-2.523,0.164-4.166,0.701-6.328,0.701c-3.672-0.001-5.435,0.047-7.13-0.399
		c-2.59-0.799-3.209-0.992-4.757-1.474C3.094,9.553,2.088,9.238,1.421,9.03C1.28,8.986,1.155,8.947,1.047,8.912
		c-0.399-0.127-0.33-0.107-0.536-0.174C0.472,8.726,0.43,8.72,0.391,8.72c-0.165,0-0.318,0.105-0.372,0.27
		C0.006,9.028,0,9.069,0,9.108c-0.001,0.165,0.104,0.319,0.27,0.374c0.205,0.065,0.05,0.017,0.505,0.162
		c0.734,0.234,2.012,0.639,3.667,1.155c1.548,0.483,2.167,0.653,4.757,1.452c0.571,0.148,1.155,0.227,1.823,0.284
		c1.289,0.111,2.889,0.091,5.307,0.091c2.267,0,3.805-0.533,6.328-0.697c0.303-0.02,0.581-0.045,0.832-0.057
		c0.16-0.007,0.309-0.01,0.444-0.015c0.218-0.01,0.461-0.013,0.677-0.013S25,11.671,25,11.455
		C25,11.238,24.825,11.064,24.609,11.064z M5.159,20.424c-0.483,0.501-1.1,0.874-1.1,0.874c-0.101,0.077-0.154,0.193-0.154,0.312
		c0,0.083,0.026,0.167,0.08,0.236C4.063,21.951,4.172,22,4.29,22c0.077,0,0.157-0.021,0.236-0.062
		c0.088-0.047,0.257-0.159,0.387-0.262c0.334-0.259,0.671-0.54,0.997-0.913c0.118-0.134,0.22-0.255,0.309-0.365
		c-0.435-0.051-0.882-0.164-0.882-0.164C5.28,20.296,5.221,20.359,5.159,20.424z M22.964,20.424
		c-0.084-0.087-0.161-0.172-0.235-0.255c-0.418,0.154-0.834,0.217-0.834,0.217c0.09,0.113,0.195,0.238,0.318,0.377
		c0.326,0.373,0.662,0.654,0.996,0.913c0.13,0.103,0.299,0.215,0.387,0.262C23.675,21.979,23.756,22,23.833,22
		c0.117,0,0.226-0.049,0.305-0.153c0.055-0.07,0.08-0.155,0.079-0.238c0-0.118-0.053-0.234-0.153-0.311
		C24.063,21.298,23.446,20.925,22.964,20.424z M23.437,15.204c0,0.588-0.091,0.946-0.312,1.34c-0.537,0.956-1.668,1.551-2.89,1.551
		c-5.438,0-6.91,0.001-12.347,0c-0.652,0-0.965-0.014-1.598-0.206c-0.937-0.286-1.769-0.85-2.332-1.519
		c-0.384-0.455-0.583-0.824-0.718-1.249c-0.294-0.925-0.655-2.38-0.976-3.439l-0.914-0.29c0.396,1.174,0.779,2.834,1.143,3.965
		c0.636,1.979,2.903,3.52,5.085,3.52h12.656c2.182,0,3.984-1.538,3.984-3.522v-1.941l-0.782,0.027V15.204z M8.487,16.901
		c0.137,0.012,0.213,0.015,0.272,0.018c0.216,0,0.391-0.176,0.391-0.391c0-0.216-0.175-0.391-0.391-0.391
		c-0.037,0-0.107-0.008-0.22-0.017c-0.222-0.018-0.432-0.057-0.737-0.144c-0.82-0.237-1.452-0.658-1.897-1.108
		c-0.282-0.285-0.503-0.598-0.642-0.91c-0.049-0.11-0.073-0.188-0.074-0.186c-0.069-0.204-0.291-0.313-0.495-0.245
		c-0.204,0.068-0.314,0.29-0.246,0.494c0.022,0.065,0.048,0.128,0.076,0.196C5.124,15.64,6.793,16.745,8.487,16.901z"/>
</g>
</svg>
