<?xml version="1.0" encoding="utf-8"?>
<!-- Generator: Adobe Illustrator 15.0.0, SVG Export Plug-In . SVG Version: 6.00 Build 0)  -->
<!DOCTYPE svg PUBLIC "-//W3C//DTD SVG 1.1//EN" "http://www.w3.org/Graphics/SVG/1.1/DTD/svg11.dtd">
<svg version="1.1" id="Layer_1" xmlns="http://www.w3.org/2000/svg" xmlns:xlink="http://www.w3.org/1999/xlink" x="0px" y="0px"
	 width="25px" height="25px" viewBox="0 0 25 25" enable-background="new 0 0 25 25" xml:space="preserve">
<g id="_x30_8">
	<path fill-rule="evenodd" clip-rule="evenodd" fill="#222222" d="M24.999,12.486V12.5H25C25,12.5,24.999,12.488,24.999,12.486z
		 M1.51,7.799C1.621,6.704,1.74,5.56,1.828,4.677C1.862,4.322,1.903,3.969,1.935,3.72c0.074-0.599,0.119-0.71,0.418-0.973
		C2.614,2.515,3.038,2.372,3.32,2.269c1.649-0.605,4.937-1.227,9.18-1.227s7.53,0.622,9.18,1.227
		c0.284,0.104,0.708,0.246,0.971,0.475c0.296,0.258,0.344,0.38,0.411,0.95c0.03,0.257,0.074,0.62,0.11,0.984
		c0.089,0.888,0.208,2.029,0.318,3.122c0.103,1.014,0.196,1.977,0.264,2.664c0.451,0.285,0.827,0.592,1.137,0.918
		c-0.198-2.03-0.619-6.279-0.82-8.091c-0.054-0.485-0.273-0.893-0.597-1.21c-0.286-0.279-0.66-0.487-0.97-0.615
		C20.704,0.724,17.129,0,12.5,0S4.294,0.723,2.496,1.464C2.188,1.591,1.816,1.8,1.53,2.083C1.203,2.407,0.981,2.824,0.926,3.322
		C0.723,5.145,0.308,9.356,0.11,11.376c0.31-0.326,0.686-0.633,1.137-0.917C1.314,9.772,1.408,8.811,1.51,7.799z M3.646,23.957
		H1.562c-0.288,0-0.521,0.234-0.521,0.521s0.233,0.52,0.521,0.52h2.083c0.288,0,0.521-0.232,0.521-0.52S3.934,23.957,3.646,23.957z
		 M23.958,14.871v-0.289c0-1.601-1.471-2.99-5.207-3.687v-1.53c0-1.15-2.121-2.074-6.264-2.074c-4.142,0-6.235,0.923-6.235,2.074
		l-0.001,1.53c-3.738,0.697-5.209,2.085-5.209,3.687v0.289C0.422,15.232,0,15.898,0,16.666v3.125c0,1.15,0.933,2.082,2.083,2.082
		h20.834c1.15,0,2.083-0.932,2.083-2.082v-3.125C25,15.898,24.578,15.232,23.958,14.871z M7.292,9.863
		c0-0.489,0.091-0.642,0.459-0.807c0.686-0.307,1.06-0.392,1.813-0.517c0.806-0.133,1.795-0.207,2.923-0.207
		c1.132,0,2.128,0.074,2.939,0.208c0.752,0.126,1.129,0.208,1.816,0.516c0.369,0.165,0.465,0.316,0.465,0.806v0.864
		c-1.442-0.199-3.163-0.311-5.208-0.311c-2.044,0-3.766,0.112-5.208,0.311V9.863z M2.354,13.752
		c0.205-0.293,0.541-0.578,1.003-0.838c1.478-0.84,4.349-1.456,9.143-1.456c3.96,0,6.607,0.42,8.242,1.039
		c0.962,0.364,1.583,0.798,1.903,1.255c0.191,0.273,0.271,0.551,0.271,0.83H2.083C2.083,14.303,2.163,14.025,2.354,13.752z
		 M23.958,19.791c0,0.574-0.467,1.041-1.041,1.041H2.083c-0.575,0-1.042-0.467-1.042-1.041v-3.125c0-0.576,0.467-1.043,1.042-1.043
		h20.834c0.574,0,1.041,0.467,1.041,1.043V19.791z M23.438,23.957h-2.083c-0.288,0-0.521,0.234-0.521,0.521s0.233,0.52,0.521,0.52
		h2.083c0.287,0,0.521-0.232,0.521-0.52S23.725,23.957,23.438,23.957z"/>
</g>
</svg>
