<?xml version="1.0" encoding="utf-8"?>
<!-- Generator: Adobe Illustrator 15.0.0, SVG Export Plug-In . SVG Version: 6.00 Build 0)  -->
<!DOCTYPE svg PUBLIC "-//W3C//DTD SVG 1.1//EN" "http://www.w3.org/Graphics/SVG/1.1/DTD/svg11.dtd">
<svg version="1.1" id="Layer_1" xmlns="http://www.w3.org/2000/svg" xmlns:xlink="http://www.w3.org/1999/xlink" x="0px" y="0px"
	 width="45px" height="45px" viewBox="0 0 45 45" enable-background="new 0 0 45 45" xml:space="preserve">
<g>
	<g>
		<path fill="#333333" d="M17.28,35.526c-5.616,0-10.184-4.568-10.184-10.185c0-2.502,0.895-4.039,1.684-5.394
			c0.424-0.729,0.825-1.417,1.054-2.2c0.6-2.057,0.509-3.505-1.634-6.171l-0.156-0.195V9.474h18.473v1.908l-0.156,0.195
			c-2.143,2.666-2.233,4.115-1.634,6.172c0.229,0.783,0.63,1.471,1.054,2.2c0.789,1.355,1.685,2.891,1.685,5.394
			C27.465,30.958,22.896,35.526,17.28,35.526z M9.473,10.895c2.088,2.663,2.521,4.521,1.725,7.251
			c-0.277,0.95-0.741,1.747-1.19,2.517c-0.766,1.316-1.49,2.56-1.49,4.679c0,4.832,3.931,8.764,8.763,8.764s8.763-3.932,8.763-8.764
			c0-2.119-0.724-3.362-1.49-4.679c-0.448-0.77-0.912-1.567-1.189-2.517c-0.797-2.731-0.363-4.589,1.725-7.252H9.473z"/>
	</g>
	<g>
		<path fill="#333333" d="M17.28,45c-0.392,0-0.71-0.318-0.71-0.711v-9.474c0-0.392,0.318-0.71,0.71-0.71s0.71,0.318,0.71,0.71
			v9.474C17.991,44.682,17.672,45,17.28,45z"/>
	</g>
	<g>
		<rect x="12.543" y="43.579" fill="#333333" width="9.473" height="1.421"/>
	</g>
	<g>
		<path fill="#333333" d="M0,13.848L3.462,0h15.002L0,13.848z M4.572,1.421L2.35,10.31l11.851-8.889H4.572z"/>
	</g>
	<g>
		<path fill="#333333" d="M12.543,10.895c-0.182,0-0.364-0.069-0.502-0.208l-3.79-3.79c-0.277-0.277-0.277-0.727,0-1.004
			c0.278-0.278,0.727-0.278,1.005,0l3.79,3.789c0.277,0.278,0.277,0.728,0,1.005C12.907,10.825,12.726,10.895,12.543,10.895z"/>
	</g>
	<g>
		<path fill="#333333" d="M25.907,17.452l-0.201-1.407c2.893-0.414,5.074-2.933,5.074-5.861c0-3.265-2.656-5.921-5.921-5.921
			s-5.921,2.656-5.921,5.921h-1.421c0-4.048,3.293-7.342,7.342-7.342c4.048,0,7.342,3.293,7.342,7.342
			C32.201,13.814,29.495,16.939,25.907,17.452z"/>
	</g>
	<g>
		<path fill="#333333" d="M21.717,16.821c-1.883-0.893-3.303-2.548-3.896-4.539l1.362-0.405c0.478,1.605,1.623,2.939,3.142,3.66
			L21.717,16.821z"/>
	</g>
	<g>
		<rect x="12.543" y="18.947" fill="#333333" width="12.316" height="1.421"/>
	</g>
	<g>
		<rect x="13.728" y="25.342" fill="#333333" width="1.421" height="1.896"/>
	</g>
	<g>
		<rect x="18.464" y="23.447" fill="#333333" width="1.421" height="1.895"/>
	</g>
	<g>
		<rect x="17.517" y="29.132" fill="#333333" width="1.421" height="1.895"/>
	</g>
</g>
</svg>
