<?xml version="1.0" encoding="utf-8"?>
<!-- Generator: Adobe Illustrator 15.0.0, SVG Export Plug-In . SVG Version: 6.00 Build 0)  -->
<!DOCTYPE svg PUBLIC "-//W3C//DTD SVG 1.1//EN" "http://www.w3.org/Graphics/SVG/1.1/DTD/svg11.dtd">
<svg version="1.1" id="Layer_1" xmlns="http://www.w3.org/2000/svg" xmlns:xlink="http://www.w3.org/1999/xlink" x="0px" y="0px"
	 width="45px" height="45px" viewBox="0 0 45 45" enable-background="new 0 0 45 45" xml:space="preserve">
<g>
	<g>
		<rect x="17.67" fill="#333333" width="1.472" height="11.78"/>
	</g>
	<g>
		<rect x="21.596" fill="#333333" width="1.473" height="11.78"/>
	</g>
	<g>
		<path fill="#333333" d="M20.369,45c-2.064,0-3.682-1.656-3.682-3.771l0.96-23.054c-0.128-0.043-0.255-0.083-0.381-0.123
			c-2.062-0.652-3.524-1.484-3.524-6.272V0h1.473v11.78c0,4.079,0.993,4.393,2.495,4.868c0.32,0.101,0.647,0.206,0.976,0.341
			l0.477,0.197L18.159,41.26c0.001,1.279,0.951,2.268,2.21,2.268s2.209-0.988,2.209-2.299l-1.003-24.043l0.477-0.197
			c0.327-0.135,0.655-0.24,0.976-0.341c1.502-0.476,2.495-0.789,2.495-4.868V0h1.473v11.78c0,4.788-1.461,5.62-3.524,6.272
			c-0.125,0.04-0.253,0.08-0.38,0.123l0.958,23.024C24.05,43.344,22.433,45,20.369,45z"/>
	</g>
	<g>
		<path fill="#333333" d="M5.645,44.91c-2.03,0-3.681-1.652-3.681-3.682L2.916,27.86L0,25.917V9.816C0,1.279,8.424,0.259,8.509,0.25
			l0.816-0.089v41.068C9.326,43.258,7.674,44.91,5.645,44.91z M1.473,25.129l2.974,1.982l-1.013,14.17
			c0.002,1.165,0.993,2.156,2.211,2.156c1.218,0,2.208-0.991,2.208-2.209V1.867c-1.894,0.454-6.38,2.143-6.38,7.95V25.129z"/>
	</g>
</g>
</svg>
