<?xml version="1.0" encoding="utf-8"?>
<!-- Generator: Adobe Illustrator 15.0.0, SVG Export Plug-In . SVG Version: 6.00 Build 0)  -->
<!DOCTYPE svg PUBLIC "-//W3C//DTD SVG 1.1//EN" "http://www.w3.org/Graphics/SVG/1.1/DTD/svg11.dtd">
<svg version="1.1" id="Layer_1" xmlns="http://www.w3.org/2000/svg" xmlns:xlink="http://www.w3.org/1999/xlink" x="0px" y="0px"
	 width="21px" height="46px" viewBox="0 0 21 46" enable-background="new 0 0 21 46" xml:space="preserve">
<title></title>
<g>
	<path fill="#FFFFFF" d="M9.132,13.29c-0.277,0.255-0.283,0.67-0.012,0.931c0.138,0.133,0.32,0.198,0.502,0.198
		c0.177,0,0.354-0.062,0.49-0.187l3.101-2.834c0.001,0,0.001-0.002,0.002-0.004c0.131-0.119,0.211-0.283,0.211-0.469
		c0-0.183-0.08-0.348-0.211-0.467c-0.001-0.001-0.001-0.002-0.002-0.002l-3.101-2.833C9.835,7.371,9.39,7.376,9.119,7.636
		c-0.271,0.26-0.266,0.677,0.012,0.93l1.866,1.706H0.704c-0.388,0-0.703,0.293-0.703,0.656c0,0.364,0.314,0.659,0.703,0.659h10.293
		L9.132,13.29z"/>
	<path fill="#FFFFFF" d="M18.425,0H8.121c-1.42,0-2.576,1.063-2.576,2.37v3.423c0,0.363,0.315,0.657,0.703,0.657
		s0.703-0.294,0.703-0.657V2.37c0-0.581,0.525-1.053,1.171-1.053h10.304c0.646,0,1.172,0.473,1.172,1.053v16.26
		c0,0.582-0.525,1.054-1.172,1.054H8.121c-0.646,0-1.171-0.472-1.171-1.054v-2.568c0-0.362-0.314-0.658-0.703-0.658
		c-0.388,0-0.703,0.296-0.703,0.658v2.568C5.544,19.938,6.7,21,8.12,21h10.304C19.846,21,21,19.938,21,18.63V2.37
		C21.001,1.063,19.848,0,18.425,0z"/>
</g>
<g>
	<path fill="#444444" d="M9.131,38.289c-0.277,0.256-0.283,0.67-0.012,0.932c0.138,0.133,0.32,0.197,0.502,0.197
		c0.177,0,0.354-0.061,0.49-0.186l3.101-2.834c0.001,0,0.001-0.002,0.002-0.004c0.13-0.119,0.211-0.283,0.211-0.47
		c0-0.184-0.081-0.348-0.211-0.467c-0.001-0.002-0.001-0.002-0.002-0.002l-3.101-2.834c-0.277-0.252-0.722-0.248-0.993,0.012
		c-0.271,0.261-0.266,0.679,0.012,0.933l1.866,1.705H0.703C0.315,35.271,0,35.564,0,35.928c0,0.364,0.314,0.658,0.703,0.658h10.293
		L9.131,38.289z"/>
	<path fill="#444444" d="M18.424,25H8.12c-1.42,0-2.576,1.062-2.576,2.369v3.424c0,0.363,0.315,0.656,0.703,0.656
		c0.388,0,0.703-0.293,0.703-0.656v-3.424c0-0.58,0.525-1.053,1.171-1.053h10.304c0.646,0,1.171,0.473,1.171,1.053v16.26
		c0,0.582-0.525,1.055-1.171,1.055H8.12c-0.646,0-1.171-0.473-1.171-1.055v-2.566c0-0.362-0.314-0.657-0.703-0.657
		c-0.388,0-0.703,0.295-0.703,0.657v2.566C5.543,44.938,6.699,46,8.119,46h10.304c1.421,0,2.576-1.062,2.576-2.371v-16.26
		C21,26.062,19.846,25,18.424,25z"/>
</g>
</svg>
