<?xml version="1.0" encoding="utf-8"?>
<!-- Generator: Adobe Illustrator 15.0.0, SVG Export Plug-In . SVG Version: 6.00 Build 0)  -->
<!DOCTYPE svg PUBLIC "-//W3C//DTD SVG 1.1//EN" "http://www.w3.org/Graphics/SVG/1.1/DTD/svg11.dtd">
<svg version="1.1" id="Layer_1" xmlns="http://www.w3.org/2000/svg" xmlns:xlink="http://www.w3.org/1999/xlink" x="0px" y="0px"
	 width="21px" height="46px" viewBox="0 0 21 46" enable-background="new 0 0 21 46" xml:space="preserve">
<title></title>
<path fill="#FFFFFF" d="M17.865,5.384h-2.33C15.159,0.08,10.306,0,10.255,0c-0.051,0-4.904,0.08-5.28,5.384H2.644
	c-0.615,0-1.116,0.502-1.116,1.118v14.682c0,0.604,0.511,1.116,1.116,1.116h15.222c0.604,0,1.116-0.512,1.116-1.116V6.502
	C18.982,5.886,18.48,5.384,17.865,5.384z M10.252,1.3c0.156,0.001,3.641,0.086,3.984,4.084H6.272
	C6.618,1.386,10.102,1.301,10.252,1.3z M17.682,21H2.828V6.685h14.854V21z"/>
<path fill="#444444" d="M18.033,28.385h-2.33C15.326,23.08,10.473,23,10.422,23c-0.051,0-4.904,0.08-5.28,5.385H2.811
	c-0.615,0-1.116,0.502-1.116,1.118v14.683c0,0.604,0.511,1.115,1.116,1.115h15.223c0.604,0,1.116-0.512,1.116-1.115V29.503
	C19.15,28.887,18.648,28.385,18.033,28.385z M10.42,24.301c0.156,0.002,3.639,0.086,3.984,4.084H6.439
	C6.785,24.387,10.27,24.303,10.42,24.301z M17.85,44H2.995V29.686H17.85V44z"/>
</svg>
