<?xml version="1.0" encoding="utf-8"?>
<!-- Generator: Adobe Illustrator 15.0.0, SVG Export Plug-In . SVG Version: 6.00 Build 0)  -->
<!DOCTYPE svg PUBLIC "-//W3C//DTD SVG 1.1//EN" "http://www.w3.org/Graphics/SVG/1.1/DTD/svg11.dtd">
<svg version="1.1" id="Layer_1" xmlns="http://www.w3.org/2000/svg" xmlns:xlink="http://www.w3.org/1999/xlink" x="0px" y="0px"
	 width="45px" height="45px" viewBox="0 0 45 45" enable-background="new 0 0 45 45" xml:space="preserve">
<g>
	<g>
		<path fill="#333333" d="M45,44.555h-4.105l-1.979-2.967H6.084l-1.978,2.967H0V26.258h45V44.555z M41.688,43.071h1.828V27.742
			H1.483v15.329h1.829l1.978-2.967h34.42L41.688,43.071z"/>
	</g>
	<g>
		<polygon fill="#333333" points="43.022,19.088 41.538,19.088 41.538,5.983 22.5,5.983 22.5,4.5 43.022,4.5 		"/>
	</g>
	<g>
		<polygon fill="#333333" points="3.461,19.088 1.978,19.088 1.978,4.5 22.5,4.5 22.5,5.983 3.461,5.983 		"/>
	</g>
	<g>
		<polygon fill="#333333" points="4.431,27.167 2.986,26.833 6.086,13.401 10.632,13.401 10.632,14.885 7.266,14.885 		"/>
	</g>
	<g>
		<polygon fill="#333333" points="40.568,27.167 37.734,14.885 34.368,14.885 34.368,13.401 38.914,13.401 42.014,26.833 		"/>
	</g>
	<g>
		<path fill="#333333" d="M20.522,17.852H12.61c-1.5,0-2.72-1.22-2.72-2.72v-1.978c0-1.5,1.22-2.72,2.72-2.72h7.912
			c1.5,0,2.72,1.22,2.72,2.72v1.978C23.242,16.632,22.022,17.852,20.522,17.852z M12.61,11.917c-0.682,0-1.236,0.555-1.236,1.236
			v1.978c0,0.682,0.555,1.236,1.236,1.236h7.912c0.682,0,1.236-0.554,1.236-1.236v-1.978c0-0.682-0.555-1.236-1.236-1.236H12.61z"/>
	</g>
	<g>
		<path fill="#333333" d="M32.39,17.852h-7.912c-1.5,0-2.719-1.22-2.719-2.72v-1.978c0-1.5,1.22-2.72,2.719-2.72h7.912
			c1.5,0,2.721,1.22,2.721,2.72v1.978C35.11,16.632,33.89,17.852,32.39,17.852z M24.478,11.917c-0.682,0-1.236,0.555-1.236,1.236
			v1.978c0,0.682,0.554,1.236,1.236,1.236h7.912c0.683,0,1.236-0.554,1.236-1.236v-1.978c0-0.682-0.554-1.236-1.236-1.236H24.478z"
			/>
	</g>
</g>
</svg>
