<?xml version="1.0" encoding="utf-8"?>
<!-- Generator: Adobe Illustrator 15.0.0, SVG Export Plug-In . SVG Version: 6.00 Build 0)  -->
<!DOCTYPE svg PUBLIC "-//W3C//DTD SVG 1.1//EN" "http://www.w3.org/Graphics/SVG/1.1/DTD/svg11.dtd">
<svg version="1.1" id="Layer_1" xmlns="http://www.w3.org/2000/svg" xmlns:xlink="http://www.w3.org/1999/xlink" x="0px" y="0px"
	 width="21px" height="46px" viewBox="0 0 21 46" enable-background="new 0 0 21 46" xml:space="preserve">
<title></title>
<g>
	<g id="Icon-Heart" transform="translate(178.000000, 230.000000)">
		<path id="Fill-18" fill="#444444" d="M-167.5-186.886l-0.352-0.337c-7.996-7.123-10.148-9.624-10.148-13.714
			c0-3.368,2.504-6.063,5.536-6.063c2.548,0,3.998,1.588,4.964,2.791c0.967-1.203,2.417-2.791,4.965-2.791
			c3.075,0,5.535,2.743,5.535,6.063c0,4.09-2.152,6.591-10.148,13.714L-167.5-186.886L-167.5-186.886z M-172.464-205.748
			c-2.417,0-4.394,2.164-4.394,4.812c0,3.512,2.021,5.822,9.358,12.414c7.337-6.592,9.358-8.902,9.358-12.414
			c0-2.647-1.978-4.812-4.394-4.812c-2.197,0-3.384,1.443-4.305,2.598l-0.66,0.818l-0.659-0.818
			C-169.082-204.305-170.268-205.748-172.464-205.748L-172.464-205.748z"/>
	</g>
</g>
<g>
	<g id="Icon-Heart_1_" transform="translate(178.000000, 230.000000)">
		<path id="Fill-18_1_" fill="#FFFFFF" d="M-167.5-209.886l-0.352-0.337c-7.996-7.123-10.148-9.624-10.148-13.714
			c0-3.368,2.504-6.063,5.536-6.063c2.548,0,3.998,1.588,4.964,2.791c0.967-1.203,2.417-2.791,4.965-2.791
			c3.075,0,5.535,2.743,5.535,6.063c0,4.09-2.152,6.591-10.148,13.714L-167.5-209.886L-167.5-209.886z M-172.464-228.748
			c-2.417,0-4.394,2.164-4.394,4.812c0,3.512,2.021,5.822,9.358,12.414c7.337-6.592,9.358-8.902,9.358-12.414
			c0-2.647-1.978-4.812-4.394-4.812c-2.197,0-3.384,1.443-4.305,2.598l-0.66,0.818l-0.659-0.818
			C-169.082-227.305-170.268-228.748-172.464-228.748L-172.464-228.748z"/>
	</g>
</g>
</svg>
