<?xml version="1.0" encoding="utf-8"?>
<!-- Generator: Adobe Illustrator 15.0.0, SVG Export Plug-In . SVG Version: 6.00 Build 0)  -->
<!DOCTYPE svg PUBLIC "-//W3C//DTD SVG 1.1//EN" "http://www.w3.org/Graphics/SVG/1.1/DTD/svg11.dtd">
<svg version="1.1" id="Layer_1" xmlns="http://www.w3.org/2000/svg" xmlns:xlink="http://www.w3.org/1999/xlink" x="0px" y="0px"
	 width="45px" height="45px" viewBox="0 0 45 45" enable-background="new 0 0 45 45" xml:space="preserve">
<g>
	<g>
		<path fill="#333333" d="M11.611,5.914h-8.98v8.814c0,2.296,0.813,4.462,2.208,6.156v11.081c-4.338,1.736-4.35,5.701-4.35,12.205
			v0.342h33.775V44.17c0-6.52-0.01-10.488-4.383-12.219V20.933c1.396-1.697,2.207-3.883,2.207-6.205V5.914h-8.98
			c-0.179-3.02-2.685-5.424-5.748-5.424C14.296,0.489,11.79,2.894,11.611,5.914z M11.771,20.936H8.602v-8.049h3.169V20.936z
			 M8.602,27.184v-5.566h3.169v5.566h0.682v-3.448h9.815v3.448h0.681v-5.566h3.171v5.566h0.681v-3.815
			c0.896-0.436,1.703-1.011,2.4-1.695V43.83H5.519V21.627c0.697,0.685,1.504,1.262,2.401,1.706v3.851H8.602z M26.12,20.936h-3.171
			v-8.049h3.171V20.936z M4.839,32.705V43.83H1.171C1.172,37.762,1.248,34.297,4.839,32.705z M33.582,43.83h-3.7V32.689
			C33.505,34.275,33.581,37.744,33.582,43.83z M31.409,14.728c0,3.334-1.794,6.367-4.608,7.879V12.206h-4.532v10.848l-9.815,0.001
			V12.206H7.92v10.366c-2.817-1.536-4.607-4.549-4.607-7.843V6.595h28.096V14.728z M22.427,5.914H12.293
			C12.47,3.27,14.671,1.17,17.36,1.17C20.049,1.17,22.251,3.27,22.427,5.914z"/>
		<path fill="#333333" d="M34.754,45H0v-0.83c0-6.354,0-10.6,4.35-12.529V21.057c-1.425-1.793-2.208-4.033-2.208-6.329V5.424h9.025
			C11.577,2.348,14.213,0,17.36,0c3.147,0,5.783,2.348,6.192,5.424h9.025v9.304c0,2.323-0.782,4.581-2.207,6.377v10.52
			c4.383,1.922,4.383,6.178,4.383,12.545V45z M30.371,43.342h2.722c-0.01-5.432-0.199-8.344-2.722-9.852V43.342z M6.008,43.342
			h22.704V22.75c-0.446,0.347-0.921,0.654-1.422,0.918v4.003h-1.659v-5.566h-2.192v5.566h-1.659v-3.447h-8.837v3.447h-1.66v-5.566
			H9.091v5.566h-1.66v-4.041c-0.501-0.268-0.978-0.578-1.422-0.926V43.342z M1.66,43.342H4.35V33.51
			C1.858,35.021,1.671,37.928,1.66,43.342z M7.431,11.716h5.511v10.85l8.837-0.001V11.716h5.511v10.022
			c2.258-1.537,3.63-4.151,3.63-7.011V7.084H3.802v7.644c0,2.82,1.371,5.419,3.628,6.97V11.716z M23.438,20.447h2.192v-7.071h-2.192
			V20.447z M9.091,20.447h2.191v-7.071H9.091V20.447z M12.847,5.424h9.026C21.48,3.275,19.59,1.66,17.36,1.66
			S13.24,3.275,12.847,5.424z"/>
	</g>
	<g>
		<path fill="#333333" d="M10.527,34.213l6.75,3.533h0.401l6.515-3.523v7.154h0.682v-12.32H9.846v12.32h0.681V34.213z M24.193,29.74
			v3.707l-6.687,3.617h-0.062l-6.917-3.621V29.74H24.193z"/>
		<path fill="#333333" d="M25.364,41.867h-1.66v-6.826l-5.901,3.193h-0.646l-6.141-3.215v6.848h-1.66V28.568h16.008V41.867z
			 M11.016,33.148l6.456,3.379l6.232-3.371v-2.928H11.016V33.148z"/>
	</g>
	<g>
		<path fill="#333333" d="M17.36,35.066c1.063,0,1.929-0.863,1.929-1.928s-0.866-1.93-1.929-1.93c-1.064,0-1.931,0.865-1.931,1.93
			S16.296,35.066,17.36,35.066z M17.36,31.891c0.688,0,1.248,0.559,1.248,1.248c0,0.688-0.56,1.248-1.248,1.248
			c-0.688,0-1.249-0.561-1.249-1.248C16.112,32.449,16.672,31.891,17.36,31.891z"/>
		<path fill="#333333" d="M17.36,35.557c-1.334,0-2.42-1.084-2.42-2.418s1.085-2.42,2.42-2.42c1.334,0,2.418,1.086,2.418,2.42
			S18.694,35.557,17.36,35.557z M17.36,32.379c-0.418,0-0.759,0.342-0.759,0.76s0.341,0.758,0.759,0.758s0.759-0.34,0.759-0.758
			S17.779,32.379,17.36,32.379z"/>
	</g>
</g>
</svg>
