<?xml version="1.0" encoding="utf-8"?>
<!-- Generator: Adobe Illustrator 15.0.0, SVG Export Plug-In . SVG Version: 6.00 Build 0)  -->
<!DOCTYPE svg PUBLIC "-//W3C//DTD SVG 1.1//EN" "http://www.w3.org/Graphics/SVG/1.1/DTD/svg11.dtd">
<svg version="1.1" id="Layer_1" xmlns="http://www.w3.org/2000/svg" xmlns:xlink="http://www.w3.org/1999/xlink" x="0px" y="0px"
	 width="144px" height="36px" viewBox="0 0 144 36" enable-background="new 0 0 144 36" xml:space="preserve">
<g>
	<path fill="#FFFFFF" d="M38.968,10.716h5.727c1.042,0,1.901,0.142,2.576,0.426c0.674,0.284,1.208,0.644,1.599,1.081
		s0.663,0.928,0.816,1.472c0.153,0.544,0.23,1.07,0.23,1.576s-0.077,1.031-0.23,1.576c-0.153,0.544-0.425,1.035-0.816,1.472
		s-0.924,0.798-1.599,1.081c-0.675,0.284-1.534,0.426-2.576,0.426h-3.519V27h-2.208V10.716z M41.176,17.892h2.898
		c0.429,0,0.854-0.035,1.276-0.104c0.421-0.069,0.797-0.196,1.127-0.379c0.33-0.184,0.594-0.449,0.793-0.793
		c0.199-0.345,0.299-0.794,0.299-1.346c0-0.552-0.1-1-0.299-1.346c-0.199-0.345-0.464-0.609-0.793-0.793
		c-0.33-0.184-0.706-0.311-1.127-0.379c-0.422-0.069-0.848-0.104-1.276-0.104h-2.898V17.892z"/>
	<path fill="#FFFFFF" d="M55.436,10.716h2.002L64.406,27H61.83l-1.633-4.025h-7.752L50.836,27H48.26L55.436,10.716z M59.393,21.043
		l-3.037-7.475h-0.045l-3.082,7.475H59.393z"/>
	<path fill="#FFFFFF" d="M65.946,10.716h2.898l8.97,13.386h0.046V10.716h2.208V27h-2.806L68.2,13.614h-0.046V27h-2.208V10.716z"/>
	<path fill="#FFFFFF" d="M88.786,10.716h2.001L97.756,27H95.18l-1.633-4.025h-7.751L84.186,27H81.61L88.786,10.716z M92.742,21.043
		l-3.036-7.475H89.66l-3.082,7.475H92.742z"/>
	<path fill="#FFFFFF" d="M113.165,17.892v8.027c-0.398,0.245-0.851,0.46-1.356,0.644c-0.507,0.185-1.032,0.342-1.576,0.473
		c-0.544,0.129-1.097,0.226-1.656,0.287c-0.56,0.061-1.085,0.092-1.575,0.092c-1.38,0-2.61-0.23-3.691-0.689
		c-1.081-0.461-1.993-1.082-2.737-1.863c-0.743-0.782-1.311-1.691-1.701-2.726c-0.392-1.035-0.587-2.128-0.587-3.278
		c0-1.211,0.211-2.338,0.633-3.381c0.421-1.042,1.004-1.947,1.748-2.714c0.743-0.767,1.636-1.369,2.679-1.806
		s2.186-0.656,3.428-0.656c1.502,0,2.729,0.188,3.68,0.564c0.95,0.375,1.748,0.893,2.392,1.552l-1.563,1.679
		c-0.675-0.644-1.388-1.093-2.14-1.346c-0.751-0.253-1.54-0.379-2.368-0.379c-0.936,0-1.779,0.172-2.53,0.518
		c-0.752,0.345-1.396,0.809-1.932,1.391c-0.537,0.583-0.951,1.269-1.242,2.059c-0.292,0.79-0.438,1.629-0.438,2.519
		c0,0.919,0.161,1.775,0.483,2.564c0.322,0.791,0.767,1.477,1.334,2.059c0.567,0.584,1.234,1.039,2.001,1.369
		s1.602,0.494,2.507,0.494c0.782,0,1.521-0.072,2.22-0.219c0.697-0.145,1.291-0.355,1.782-0.632v-4.531h-3.611v-2.07H113.165z"/>
	<path fill="#FFFFFF" d="M116.615,10.716h10.511v2.07h-8.303v4.853h7.729v2.07h-7.729v5.221h8.717V27h-10.925V10.716z"/>
	<path fill="#FFFFFF" d="M135.199,10.716h2.001L144.169,27h-2.576l-1.633-4.025h-7.751L130.599,27h-2.575L135.199,10.716z
		 M139.155,21.043l-3.036-7.475h-0.046l-3.082,7.475H139.155z"/>
</g>
<g>
	<path fill="#FC5B62" d="M14.725,36h-3.272c-1.099,0-1.993-0.895-1.993-1.993v-1.323c0-1.099,0.894-1.992,1.993-1.992h3.272
		c1.099,0,1.993,0.894,1.993,1.992v1.323C16.717,35.105,15.823,36,14.725,36z M11.453,32.131c-0.305,0-0.553,0.248-0.553,0.553
		v1.323c0,0.305,0.249,0.553,0.553,0.553h3.272c0.305,0,0.553-0.248,0.553-0.553v-1.323c0-0.305-0.248-0.553-0.553-0.553H11.453z
		 M14.736,29.237H11.35c-0.681,0-1.29-0.262-1.758-0.756c-0.622-0.659-1.269-1.312-1.919-1.967C3.901,22.708,0,18.771,0,12.939
		c0-3.505,1.342-6.764,3.78-9.177C6.229,1.336,9.52,0,13.042,0c3.526,0,6.815,1.336,9.265,3.762
		c2.436,2.415,3.777,5.674,3.777,9.177c0,5.602-3.912,9.632-7.365,13.188c-0.764,0.788-1.516,1.562-2.214,2.339
		C16.054,28.971,15.441,29.237,14.736,29.237z M13.042,1.44c-3.142,0-6.071,1.188-8.25,3.346C2.631,6.925,1.44,9.821,1.44,12.939
		c0,5.24,3.689,8.962,7.256,12.562c0.658,0.663,1.312,1.323,1.942,1.99c0.194,0.205,0.428,0.306,0.711,0.306h3.386
		c0.293,0,0.522-0.096,0.699-0.292c0.709-0.79,1.475-1.578,2.252-2.38c3.421-3.524,6.958-7.168,6.958-12.186
		c0-3.116-1.19-6.012-3.352-8.154C19.117,2.628,16.186,1.44,13.042,1.44z"/>
</g>
<g>
	<path fill="#FC5B62" d="M11.675,28.996c-2.193-2.367-5.904-8.295-5.904-15.494C5.771,5.678,8.845,0,13.082,0
		c4.236,0,7.312,5.678,7.312,13.503c0,7.027-2.577,10.833-4.851,14.19c-0.275,0.406-0.547,0.808-0.81,1.209l-1.204-0.789
		c0.267-0.407,0.542-0.815,0.822-1.228c2.262-3.342,4.603-6.797,4.603-13.383c0-6.876-2.525-12.063-5.872-12.063
		c-3.347,0-5.872,5.186-5.872,12.062c0,8.458,5.295,14.272,5.52,14.516L11.675,28.996z"/>
</g>
<g>
	<rect x="12.363" y="0.72" fill="#FC5B62" width="1.44" height="27.787"/>
</g>
</svg>
